<?xml version="1.0" encoding="UTF-8"?>
<svg height="600" width="800" xmlns="http://www.w3.org/2000/svg" xmlns:xlink="http://www.w3.org/1999/xlink">
    <g id="Notes" font-family="'LucidaGrande', 'Lucida Grande', sans-serif" font-size="13">
        <rect fill="white" height="600.0" width="800.0" x="0.0" y="0.0" />
        <g font-size="13">
            <text x="18.0" y="176.0">Small</text>
            <text x="18.0" y="376.0">Medium</text>
            <text x="18.0" y="576.0">Large</text>
        </g>
        <g font-size="9">
            <text x="250.0" y="30.0">Ultralight</text>
            <text x="450.0" y="30.0">Regular</text>
            <text x="650.0" y="30.0">Black</text>
            <text id="template-version" fill="#505050" text-anchor="end" x="785.0" y="575.0">Template v.3.0</text>
            <a href="https://wangchujiang.com/#/app">
                <text fill="#505050" text-anchor="end" x="785.0" y="590.0">https://wangchujiang.com/#/app</text>
            </a>
        </g>
    </g>
    <g id="Guides" stroke="rgb(39, 170, 225)" stroke-width="0.5">
        <path id="Capline-S" d="M18,76 l800,0" />
        <path id="H-reference" d="M85,145.755 L87.685,145.755 L113.369,79.287 L114.052,79.287 L114.052,76 L112.148,76 L85,145.755 Z M95.693,121.536 L130.996,121.536 L130.263,119.313 L96.474,119.313 L95.693,121.536 Z M139.15,145.755 L141.787,145.755 L114.638,76 L113.466,76 L113.466,79.287 L139.15,145.755 Z" stroke="none" />
        <path id="Baseline-S" d="M18,146 l800,0" />
        <path id="left-margin-Ultralight-S" d="M221,56 l0,110" />
        <path id="right-margin-Ultralight-S" d="M309,56 l0,110" />
        <path id="left-margin-Regular-S" d="M421,56 l0,110" />
        <path id="right-margin-Regular-S" d="M509,56 l0,110" />
        <path id="left-margin-Black-S" d="M621,56 l0,110" />
        <path id="right-margin-Black-S" d="M709,56 l0,110" />
        <path id="Capline-M" d="M18,276 l800,0" />
        <path id="Baseline-M" d="M18,346 l800,0" />
        <path id="Capline-L" d="M18,476 l800,0" />
        <path id="Baseline-L" d="M18,546 l800,0" />
    </g>
    <g id="Symbols">
        <g id="Ultralight-S">
            <path d="M260.52,77.493 C261.812,76.524 263.385,76 265,76 C266.615,76 268.188,76.524 269.48,77.493 L295.613,97.093 C296.541,97.789 297.293,98.691 297.812,99.727 C298.33,100.764 298.6,101.908 298.6,103.067 L298.6,138.533 C298.6,140.513 297.813,142.413 296.413,143.813 C295.013,145.213 293.113,146 291.133,146 L272.84,146 C271.751,146 270.706,145.567 269.936,144.797 C269.166,144.027 268.733,142.982 268.733,141.893 L268.733,119.867 C268.733,118.877 268.34,117.927 267.64,117.227 C266.94,116.527 265.99,116.133 265,116.133 C264.01,116.133 263.06,116.527 262.36,117.227 C261.66,117.927 261.267,118.877 261.267,119.867 L261.267,141.893 C261.267,142.433 261.16,142.967 260.954,143.465 C260.748,143.963 260.445,144.416 260.064,144.797 C259.683,145.179 259.23,145.481 258.732,145.688 C258.233,145.894 257.699,146 257.16,146 L238.867,146 C236.886,146 234.987,145.213 233.587,143.813 C232.187,142.413 231.4,140.513 231.4,138.533 L231.4,103.067 C231.4,101.908 231.67,100.764 232.188,99.727 C232.707,98.691 233.459,97.789 234.387,97.093 L260.52,77.493 Z M265,83.467 L238.867,103.067 L238.867,138.533 L253.8,138.533 L253.8,119.867 C253.8,116.896 254.98,114.048 257.08,111.947 C259.181,109.847 262.03,108.667 265,108.667 C267.97,108.667 270.819,109.847 272.92,111.947 C275.02,114.048 276.2,116.896 276.2,119.867 L276.2,138.533 L291.133,138.533 L291.133,103.067 L265,83.467 Z" />
        </g>
        <g id="Regular-S">
            <path d="M460.52,77.493 C461.812,76.524 463.385,76 465,76 C466.615,76 468.188,76.524 469.48,77.493 L495.613,97.093 C496.541,97.789 497.293,98.691 497.812,99.727 C498.33,100.764 498.6,101.908 498.6,103.067 L498.6,138.533 C498.6,140.513 497.813,142.413 496.413,143.813 C495.013,145.213 493.113,146 491.133,146 L472.84,146 C471.751,146 470.706,145.567 469.936,144.797 C469.166,144.027 468.733,142.982 468.733,141.893 L468.733,119.867 C468.733,118.877 468.34,117.927 467.64,117.227 C466.94,116.527 465.99,116.133 465,116.133 C464.01,116.133 463.06,116.527 462.36,117.227 C461.66,117.927 461.267,118.877 461.267,119.867 L461.267,141.893 C461.267,142.433 461.16,142.967 460.954,143.465 C460.748,143.963 460.445,144.416 460.064,144.797 C459.683,145.179 459.23,145.481 458.732,145.688 C458.233,145.894 457.699,146 457.16,146 L438.867,146 C436.886,146 434.987,145.213 433.587,143.813 C432.187,142.413 431.4,140.513 431.4,138.533 L431.4,103.067 C431.4,101.908 431.67,100.764 432.188,99.727 C432.707,98.691 433.459,97.789 434.387,97.093 L460.52,77.493 Z M465,83.467 L438.867,103.067 L438.867,138.533 L453.8,138.533 L453.8,119.867 C453.8,116.896 454.98,114.048 457.08,111.947 C459.181,109.847 462.03,108.667 465,108.667 C467.97,108.667 470.819,109.847 472.92,111.947 C475.02,114.048 476.2,116.896 476.2,119.867 L476.2,138.533 L491.133,138.533 L491.133,103.067 L465,83.467 Z" />
        </g>
        <g id="Black-S">
            <path d="M660.52,77.493 C661.812,76.524 663.385,76 665,76 C666.615,76 668.188,76.524 669.48,77.493 L695.613,97.093 C696.541,97.789 697.293,98.691 697.812,99.727 C698.33,100.764 698.6,101.908 698.6,103.067 L698.6,138.533 C698.6,140.513 697.813,142.413 696.413,143.813 C695.013,145.213 693.114,146 691.133,146 L672.84,146 C671.751,146 670.706,145.567 669.936,144.797 C669.166,144.027 668.733,142.982 668.733,141.893 L668.733,119.867 C668.733,118.877 668.34,117.927 667.64,117.227 C666.94,116.527 665.99,116.133 665,116.133 C664.01,116.133 663.06,116.527 662.36,117.227 C661.66,117.927 661.267,118.877 661.267,119.867 L661.267,141.893 C661.267,142.433 661.16,142.967 660.954,143.465 C660.748,143.963 660.445,144.416 660.064,144.797 C659.683,145.179 659.23,145.481 658.732,145.688 C658.233,145.894 657.699,146 657.16,146 L638.867,146 C636.886,146 634.987,145.213 633.587,143.813 C632.187,142.413 631.4,140.513 631.4,138.533 L631.4,103.067 C631.4,101.908 631.67,100.764 632.188,99.727 C632.707,98.691 633.459,97.789 634.387,97.093 L660.52,77.493 Z M665,83.467 L638.867,103.067 L638.867,138.533 L653.8,138.533 L653.8,119.867 C653.8,116.896 654.98,114.048 657.08,111.947 C659.181,109.847 662.03,108.667 665,108.667 C667.97,108.667 670.819,109.847 672.92,111.947 C675.02,114.048 676.2,116.896 676.2,119.867 L676.2,138.533 L691.133,138.533 L691.133,103.067 L665,83.467 Z" />
        </g>
    </g>
</svg>