<?xml version="1.0" encoding="UTF-8"?>
<svg height="600" width="800" xmlns="http://www.w3.org/2000/svg" xmlns:xlink="http://www.w3.org/1999/xlink">
    <g id="Notes" font-family="'LucidaGrande', 'Lucida Grande', sans-serif" font-size="13">
        <rect fill="white" height="600.0" width="800.0" x="0.0" y="0.0" />
        <g font-size="13">
            <text x="18.0" y="176.0">Small</text>
            <text x="18.0" y="376.0">Medium</text>
            <text x="18.0" y="576.0">Large</text>
        </g>
        <g font-size="9">
            <text x="250.0" y="30.0">Ultralight</text>
            <text x="450.0" y="30.0">Regular</text>
            <text x="650.0" y="30.0">Black</text>
            <text id="template-version" fill="#505050" text-anchor="end" x="785.0" y="575.0">Template v.3.0</text>
            <a href="https://wangchujiang.com/#/app">
                <text fill="#505050" text-anchor="end" x="785.0" y="590.0">https://wangchujiang.com/#/app</text>
            </a>
        </g>
    </g>
    <g id="Guides" stroke="rgb(39, 170, 225)" stroke-width="0.5">
        <path id="Capline-S" d="M18,76 l800,0" />
        <path id="H-reference" d="M85,145.755 L87.685,145.755 L113.369,79.287 L114.052,79.287 L114.052,76 L112.148,76 L85,145.755 Z M95.693,121.536 L130.996,121.536 L130.263,119.313 L96.474,119.313 L95.693,121.536 Z M139.15,145.755 L141.787,145.755 L114.638,76 L113.466,76 L113.466,79.287 L139.15,145.755 Z" stroke="none" />
        <path id="Baseline-S" d="M18,146 l800,0" />
        <path id="left-margin-Ultralight-S" d="M221,56 l0,110" />
        <path id="right-margin-Ultralight-S" d="M309,56 l0,110" />
        <path id="left-margin-Regular-S" d="M421,56 l0,110" />
        <path id="right-margin-Regular-S" d="M509,56 l0,110" />
        <path id="left-margin-Black-S" d="M621,56 l0,110" />
        <path id="right-margin-Black-S" d="M709,56 l0,110" />
        <path id="Capline-M" d="M18,276 l800,0" />
        <path id="Baseline-M" d="M18,346 l800,0" />
        <path id="Capline-L" d="M18,476 l800,0" />
        <path id="Baseline-L" d="M18,546 l800,0" />
    </g>
    <g id="Symbols">
        <g id="Ultralight-S">
            <path d="M265,76 C268.713,76 272.274,77.475 274.899,80.1 C277.525,82.726 279,86.287 279,90 L286.122,90 C287.936,90 289.679,90.703 290.984,91.963 C292.289,93.222 293.055,94.939 293.119,96.751 L294.617,138.751 C294.65,139.691 294.494,140.627 294.158,141.505 C293.821,142.383 293.312,143.184 292.659,143.86 C292.007,144.537 291.224,145.075 290.359,145.442 C289.494,145.81 288.564,146 287.624,146 L242.376,146 C241.436,146 240.506,145.81 239.641,145.442 C238.776,145.075 237.993,144.537 237.341,143.86 C236.688,143.184 236.179,142.383 235.842,141.505 C235.506,140.627 235.35,139.691 235.383,138.751 L236.881,96.751 C236.945,94.939 237.711,93.222 239.016,91.963 C240.321,90.703 242.064,90 243.878,90 L251,90 C251,86.287 252.475,82.726 255.101,80.1 C257.726,77.475 261.287,76 265,76 Z M251,97 L243.878,97 L242.376,139 L287.624,139 L286.122,97 L279,97 L279,100.5 C278.999,101.392 278.657,102.25 278.045,102.899 C277.433,103.547 276.596,103.938 275.705,103.99 C274.815,104.042 273.938,103.753 273.254,103.18 C272.569,102.608 272.13,101.795 272.025,100.91 L272,100.5 L272,97 L258,97 L258,100.5 C257.999,101.392 257.657,102.25 257.045,102.899 C256.433,103.547 255.596,103.938 254.705,103.99 C253.815,104.042 252.938,103.753 252.254,103.18 C251.57,102.608 251.13,101.795 251.025,100.91 L251,100.5 L251,97 Z M265,83 C263.234,82.999 261.533,83.666 260.238,84.867 C258.943,86.068 258.15,87.714 258.018,89.475 L258,90 L272,90 C272,88.143 271.263,86.363 269.95,85.05 C268.637,83.737 266.856,83 265,83 Z" />
        </g>
        <g id="Regular-S">
            <path d="M465,76 C468.713,76 472.274,77.475 474.899,80.1 C477.525,82.726 479,86.287 479,90 L486.122,90 C487.936,90 489.679,90.703 490.984,91.963 C492.289,93.222 493.055,94.939 493.119,96.751 L494.617,138.751 C494.65,139.691 494.494,140.627 494.158,141.505 C493.821,142.383 493.312,143.184 492.659,143.86 C492.007,144.537 491.224,145.075 490.359,145.442 C489.494,145.81 488.564,146 487.624,146 L442.376,146 C441.436,146 440.506,145.81 439.641,145.442 C438.776,145.075 437.993,144.537 437.341,143.86 C436.688,143.184 436.179,142.383 435.842,141.505 C435.506,140.627 435.35,139.691 435.383,138.751 L436.881,96.751 C436.945,94.939 437.711,93.222 439.016,91.963 C440.321,90.703 442.064,90 443.878,90 L451,90 C451,86.287 452.475,82.726 455.1,80.1 C457.726,77.475 461.287,76 465,76 Z M451,97 L443.878,97 L442.376,139 L487.624,139 L486.122,97 L479,97 L479,100.5 C478.999,101.392 478.657,102.25 478.045,102.899 C477.433,103.547 476.595,103.938 475.705,103.99 C474.815,104.042 473.938,103.753 473.254,103.18 C472.569,102.608 472.13,101.795 472.025,100.91 L472,100.5 L472,97 L458,97 L458,100.5 C457.999,101.392 457.657,102.25 457.045,102.899 C456.433,103.547 455.596,103.938 454.705,103.99 C453.815,104.042 452.938,103.753 452.254,103.18 C451.569,102.608 451.13,101.795 451.025,100.91 L451,100.5 L451,97 Z M465,83 C463.234,82.999 461.533,83.666 460.238,84.867 C458.943,86.068 458.15,87.714 458.018,89.475 L458,90 L472,90 C472,88.143 471.263,86.363 469.95,85.05 C468.637,83.737 466.856,83 465,83 Z" />
        </g>
        <g id="Black-S">
            <path d="M665,76 C668.713,76 672.274,77.475 674.899,80.1 C677.525,82.726 679,86.287 679,90 L686.122,90 C687.936,90 689.679,90.703 690.984,91.963 C692.289,93.222 693.055,94.939 693.119,96.751 L694.617,138.751 C694.65,139.691 694.494,140.627 694.158,141.505 C693.821,142.383 693.312,143.184 692.659,143.86 C692.007,144.537 691.224,145.075 690.359,145.442 C689.494,145.81 688.564,146 687.624,146 L642.376,146 C641.436,146 640.506,145.81 639.641,145.442 C638.776,145.075 637.993,144.537 637.341,143.86 C636.688,143.184 636.179,142.383 635.842,141.505 C635.506,140.627 635.35,139.691 635.383,138.751 L636.881,96.751 C636.945,94.939 637.711,93.222 639.016,91.963 C640.321,90.703 642.064,90 643.878,90 L651,90 C651,86.287 652.475,82.726 655.1,80.1 C657.726,77.475 661.287,76 665,76 Z M651,97 L643.878,97 L642.376,139 L687.624,139 L686.122,97 L679,97 L679,100.5 C678.999,101.392 678.657,102.25 678.045,102.899 C677.433,103.547 676.596,103.938 675.705,103.99 C674.815,104.042 673.938,103.753 673.254,103.18 C672.569,102.608 672.13,101.795 672.024,100.91 L672,100.5 L672,97 L658,97 L658,100.5 C657.999,101.392 657.657,102.25 657.045,102.899 C656.433,103.547 655.596,103.938 654.705,103.99 C653.815,104.042 652.938,103.753 652.254,103.18 C651.569,102.608 651.13,101.795 651.024,100.91 L651,100.5 L651,97 Z M665,83 C663.234,82.999 661.533,83.666 660.238,84.867 C658.943,86.068 658.15,87.714 658.018,89.475 L658,90 L672,90 C672,88.143 671.263,86.363 669.95,85.05 C668.637,83.737 666.856,83 665,83 Z" />
        </g>
    </g>
</svg>