<?xml version="1.0" encoding="UTF-8"?>
<svg height="600" width="800" xmlns="http://www.w3.org/2000/svg" xmlns:xlink="http://www.w3.org/1999/xlink">
    <g id="Notes" font-family="'LucidaGrande', 'Lucida Grande', sans-serif" font-size="13">
        <rect fill="white" height="600.0" width="800.0" x="0.0" y="0.0" />
        <g font-size="13">
            <text x="18.0" y="176.0">Small</text>
            <text x="18.0" y="376.0">Medium</text>
            <text x="18.0" y="576.0">Large</text>
        </g>
        <g font-size="9">
            <text x="250.0" y="30.0">Ultralight</text>
            <text x="450.0" y="30.0">Regular</text>
            <text x="650.0" y="30.0">Black</text>
            <text id="template-version" fill="#505050" text-anchor="end" x="785.0" y="575.0">Template v.3.0</text>
            <a href="https://wangchujiang.com/#/app">
                <text fill="#505050" text-anchor="end" x="785.0" y="590.0">https://wangchujiang.com/#/app</text>
            </a>
        </g>
    </g>
    <g id="Guides" stroke="rgb(39, 170, 225)" stroke-width="0.5">
        <path id="Capline-S" d="M18,76 l800,0" />
        <path id="H-reference" d="M85,145.755 L87.685,145.755 L113.369,79.287 L114.052,79.287 L114.052,76 L112.148,76 L85,145.755 Z M95.693,121.536 L130.996,121.536 L130.263,119.313 L96.474,119.313 L95.693,121.536 Z M139.15,145.755 L141.787,145.755 L114.638,76 L113.466,76 L113.466,79.287 L139.15,145.755 Z" stroke="none" />
        <path id="Baseline-S" d="M18,146 l800,0" />
        <path id="left-margin-Ultralight-S" d="M214.167,56 l0,110" />
        <path id="right-margin-Ultralight-S" d="M315.833,56 l0,110" />
        <path id="left-margin-Regular-S" d="M414.167,56 l0,110" />
        <path id="right-margin-Regular-S" d="M515.833,56 l0,110" />
        <path id="left-margin-Black-S" d="M614.167,56 l0,110" />
        <path id="right-margin-Black-S" d="M715.833,56 l0,110" />
        <path id="Capline-M" d="M18,276 l800,0" />
        <path id="Baseline-M" d="M18,346 l800,0" />
        <path id="Capline-L" d="M18,476 l800,0" />
        <path id="Baseline-L" d="M18,546 l800,0" />
    </g>
    <g id="Symbols">
        <g id="Ultralight-S">
            <path d="M235.833,93.5 C235.833,91.202 236.286,88.926 237.165,86.803 C238.045,84.68 239.334,82.751 240.959,81.126 C242.584,79.501 244.513,78.212 246.636,77.332 C248.76,76.453 251.035,76 253.333,76 C255.631,76 257.907,76.453 260.03,77.332 C262.154,78.212 264.083,79.501 265.708,81.126 C267.333,82.751 268.622,84.68 269.501,86.803 C270.381,88.926 270.833,91.202 270.833,93.5 C270.833,98.141 268.99,102.592 265.708,105.874 C262.426,109.156 257.975,111 253.333,111 C248.692,111 244.241,109.156 240.959,105.874 C237.677,102.592 235.833,98.141 235.833,93.5 Z M253.333,83.778 C250.755,83.778 248.282,84.802 246.459,86.625 C244.635,88.449 243.611,90.922 243.611,93.5 C243.611,96.078 244.635,98.551 246.459,100.375 C248.282,102.198 250.755,103.222 253.333,103.222 C255.912,103.222 258.385,102.198 260.208,100.375 C262.031,98.551 263.056,96.078 263.056,93.5 C263.056,90.922 262.031,88.449 260.208,86.625 C258.385,84.802 255.912,83.778 253.333,83.778 Z M253.333,114.889 C261.084,114.889 268.131,117.253 273.311,120.59 C275.904,122.262 278.125,124.234 279.739,126.384 C281.322,128.504 282.5,131.051 282.5,133.777 C282.5,136.713 281.139,139.066 279.14,140.766 C277.254,142.36 274.796,143.394 272.257,144.106 C267.151,145.533 260.396,146 253.333,146 C246.271,146 239.516,145.533 234.414,144.106 C231.871,143.394 229.413,142.36 227.531,140.766 C225.524,139.07 224.167,136.713 224.167,133.777 C224.167,131.047 225.345,128.504 226.928,126.388 C228.542,124.234 230.762,122.258 233.356,120.594 C238.536,117.249 245.583,114.889 253.333,114.889 Z M253.333,122.667 C247.123,122.667 241.531,124.58 237.564,127.131 C235.581,128.407 234.103,129.783 233.154,131.047 C232.182,132.346 231.944,133.287 231.944,133.777 C231.944,134.065 232.003,134.361 232.555,134.827 C233.228,135.403 234.476,136.048 236.506,136.616 C240.551,137.744 246.434,138.222 253.333,138.222 C260.232,138.222 266.116,137.744 270.161,136.616 C272.191,136.048 273.439,135.403 274.112,134.827 C274.664,134.361 274.722,134.065 274.722,133.777 C274.722,133.287 274.485,132.346 273.513,131.047 C272.564,129.783 271.086,128.407 269.103,127.131 C265.136,124.58 259.544,122.667 253.333,122.667 Z M286.389,114.889 C291.522,114.889 296.181,116.584 299.611,118.976 C302.808,121.204 305.833,124.72 305.833,128.776 C305.833,131.059 304.849,132.949 303.352,134.322 C301.964,135.597 300.206,136.375 298.514,136.888 C295.131,137.911 290.776,138.222 286.389,138.222 L285.599,138.222 C286.105,136.869 286.389,135.383 286.389,133.777 C286.384,132.906 286.306,132.063 286.156,131.249 L285.973,130.444 L286.389,130.444 C290.593,130.444 294.011,130.126 296.263,129.445 C297.282,129.134 297.807,128.823 298.032,128.644 C297.919,128.185 297.313,126.855 295.162,125.358 C293.288,124.081 291.158,123.229 288.92,122.863 C286.682,122.496 284.392,122.623 282.208,123.234 C280.326,120.999 278.118,119.059 275.659,117.479 C278.981,115.778 282.658,114.891 286.389,114.889 Z M274.722,99.333 C274.722,96.239 275.952,93.272 278.139,91.084 C280.327,88.896 283.295,87.667 286.389,87.667 C289.483,87.667 292.451,88.896 294.638,91.084 C296.826,93.272 298.056,96.239 298.056,99.333 C298.056,102.428 296.826,105.395 294.638,107.583 C292.451,109.771 289.483,111 286.389,111 C283.295,111 280.327,109.771 278.139,107.583 C275.952,105.395 274.722,102.428 274.722,99.333 Z M286.389,95.444 C285.358,95.444 284.368,95.854 283.639,96.583 C282.91,97.313 282.5,98.302 282.5,99.333 C282.5,100.365 282.91,101.354 283.639,102.083 C284.368,102.812 285.358,103.222 286.389,103.222 C287.42,103.222 288.41,102.812 289.139,102.083 C289.868,101.354 290.278,100.365 290.278,99.333 C290.278,98.302 289.868,97.313 289.139,96.583 C288.41,95.854 287.42,95.444 286.389,95.444 Z" />
        </g>
        <g id="Regular-S">
            <path d="M435.833,93.5 C435.833,91.202 436.286,88.926 437.165,86.803 C438.045,84.68 439.334,82.751 440.959,81.126 C442.584,79.501 444.513,78.212 446.636,77.332 C448.76,76.453 451.035,76 453.333,76 C455.631,76 457.907,76.453 460.03,77.332 C462.153,78.212 464.083,79.501 465.708,81.126 C467.333,82.751 468.622,84.68 469.501,86.803 C470.381,88.926 470.833,91.202 470.833,93.5 C470.833,98.141 468.99,102.592 465.708,105.874 C462.426,109.156 457.975,111 453.333,111 C448.692,111 444.241,109.156 440.959,105.874 C437.677,102.592 435.833,98.141 435.833,93.5 Z M453.333,83.778 C450.755,83.778 448.282,84.802 446.459,86.625 C444.635,88.449 443.611,90.922 443.611,93.5 C443.611,96.078 444.635,98.551 446.459,100.375 C448.282,102.198 450.755,103.222 453.333,103.222 C455.912,103.222 458.385,102.198 460.208,100.375 C462.031,98.551 463.056,96.078 463.056,93.5 C463.056,90.922 462.031,88.449 460.208,86.625 C458.385,84.802 455.912,83.778 453.333,83.778 Z M453.333,114.889 C461.084,114.889 468.131,117.253 473.311,120.59 C475.904,122.262 478.125,124.234 479.739,126.384 C481.322,128.504 482.5,131.051 482.5,133.777 C482.5,136.713 481.139,139.066 479.14,140.766 C477.254,142.36 474.796,143.394 472.257,144.106 C467.151,145.533 460.396,146 453.333,146 C446.271,146 439.516,145.533 434.414,144.106 C431.871,143.394 429.413,142.36 427.531,140.766 C425.524,139.07 424.167,136.713 424.167,133.777 C424.167,131.047 425.345,128.504 426.928,126.388 C428.542,124.234 430.762,122.258 433.356,120.594 C438.536,117.249 445.583,114.889 453.333,114.889 Z M453.333,122.667 C447.123,122.667 441.531,124.58 437.564,127.131 C435.581,128.407 434.103,129.783 433.154,131.047 C432.182,132.346 431.944,133.287 431.944,133.777 C431.944,134.065 432.003,134.361 432.555,134.827 C433.228,135.403 434.476,136.048 436.506,136.616 C440.551,137.744 446.434,138.222 453.333,138.222 C460.232,138.222 466.116,137.744 470.161,136.616 C472.191,136.048 473.439,135.403 474.112,134.827 C474.664,134.361 474.722,134.065 474.722,133.777 C474.722,133.287 474.485,132.346 473.513,131.047 C472.564,129.783 471.086,128.407 469.103,127.131 C465.136,124.58 459.544,122.667 453.333,122.667 Z M486.389,114.889 C491.522,114.889 496.181,116.584 499.611,118.976 C502.808,121.204 505.833,124.72 505.833,128.776 C505.833,131.059 504.849,132.949 503.352,134.322 C501.964,135.597 500.206,136.375 498.514,136.888 C495.131,137.911 490.776,138.222 486.389,138.222 L485.599,138.222 C486.105,136.869 486.389,135.383 486.389,133.777 C486.384,132.906 486.306,132.063 486.156,131.249 L485.973,130.444 L486.389,130.444 C490.593,130.444 494.011,130.126 496.263,129.445 C497.282,129.134 497.807,128.823 498.032,128.644 C497.919,128.185 497.313,126.855 495.162,125.358 C493.288,124.081 491.158,123.229 488.92,122.863 C486.682,122.496 484.392,122.623 482.208,123.234 C480.326,120.999 478.118,119.059 475.659,117.479 C478.981,115.778 482.658,114.891 486.389,114.889 Z M474.722,99.333 C474.722,96.239 475.951,93.272 478.139,91.084 C480.327,88.896 483.295,87.667 486.389,87.667 C489.483,87.667 492.451,88.896 494.638,91.084 C496.826,93.272 498.056,96.239 498.056,99.333 C498.056,102.428 496.826,105.395 494.638,107.583 C492.451,109.771 489.483,111 486.389,111 C483.295,111 480.327,109.771 478.139,107.583 C475.951,105.395 474.722,102.428 474.722,99.333 Z M486.389,95.444 C485.358,95.444 484.368,95.854 483.639,96.583 C482.91,97.313 482.5,98.302 482.5,99.333 C482.5,100.365 482.91,101.354 483.639,102.083 C484.368,102.812 485.358,103.222 486.389,103.222 C487.42,103.222 488.41,102.812 489.139,102.083 C489.868,101.354 490.278,100.365 490.278,99.333 C490.278,98.302 489.868,97.313 489.139,96.583 C488.41,95.854 487.42,95.444 486.389,95.444 Z" />
        </g>
        <g id="Black-S">
            <path d="M635.833,93.5 C635.833,91.202 636.286,88.926 637.165,86.803 C638.045,84.68 639.334,82.751 640.959,81.126 C642.584,79.501 644.513,78.212 646.636,77.332 C648.76,76.453 651.035,76 653.333,76 C655.631,76 657.907,76.453 660.03,77.332 C662.154,78.212 664.083,79.501 665.708,81.126 C667.333,82.751 668.622,84.68 669.501,86.803 C670.381,88.926 670.833,91.202 670.833,93.5 C670.833,98.141 668.99,102.592 665.708,105.874 C662.426,109.156 657.975,111 653.333,111 C648.692,111 644.241,109.156 640.959,105.874 C637.677,102.592 635.833,98.141 635.833,93.5 Z M653.333,83.778 C650.755,83.778 648.282,84.802 646.459,86.625 C644.635,88.449 643.611,90.922 643.611,93.5 C643.611,96.078 644.635,98.551 646.459,100.375 C648.282,102.198 650.755,103.222 653.333,103.222 C655.912,103.222 658.385,102.198 660.208,100.375 C662.031,98.551 663.056,96.078 663.056,93.5 C663.056,90.922 662.031,88.449 660.208,86.625 C658.385,84.802 655.912,83.778 653.333,83.778 Z M653.333,114.889 C661.084,114.889 668.131,117.253 673.311,120.59 C675.904,122.262 678.125,124.234 679.739,126.384 C681.322,128.504 682.5,131.051 682.5,133.777 C682.5,136.713 681.139,139.066 679.14,140.766 C677.254,142.36 674.796,143.394 672.257,144.106 C667.151,145.533 660.396,146 653.333,146 C646.271,146 639.516,145.533 634.414,144.106 C631.871,143.394 629.413,142.36 627.531,140.766 C625.524,139.07 624.167,136.713 624.167,133.777 C624.167,131.047 625.345,128.504 626.928,126.388 C628.542,124.234 630.762,122.258 633.356,120.594 C638.536,117.249 645.583,114.889 653.333,114.889 Z M653.333,122.667 C647.123,122.667 641.531,124.58 637.564,127.131 C635.581,128.407 634.103,129.783 633.154,131.047 C632.182,132.346 631.944,133.287 631.944,133.777 C631.944,134.065 632.003,134.361 632.555,134.827 C633.228,135.403 634.476,136.048 636.506,136.616 C640.551,137.744 646.434,138.222 653.333,138.222 C660.232,138.222 666.116,137.744 670.161,136.616 C672.191,136.048 673.439,135.403 674.112,134.827 C674.664,134.361 674.722,134.065 674.722,133.777 C674.722,133.287 674.485,132.346 673.513,131.047 C672.564,129.783 671.086,128.407 669.103,127.131 C665.136,124.58 659.544,122.667 653.333,122.667 Z M686.389,114.889 C691.522,114.889 696.181,116.584 699.611,118.976 C702.808,121.204 705.833,124.72 705.833,128.776 C705.833,131.059 704.849,132.949 703.352,134.322 C701.964,135.597 700.206,136.375 698.514,136.888 C695.131,137.911 690.776,138.222 686.389,138.222 L685.599,138.222 C686.105,136.869 686.389,135.383 686.389,133.777 C686.384,132.906 686.306,132.063 686.156,131.249 L685.973,130.444 L686.389,130.444 C690.593,130.444 694.011,130.126 696.263,129.445 C697.282,129.134 697.807,128.823 698.032,128.644 C697.919,128.185 697.313,126.855 695.162,125.358 C693.288,124.081 691.158,123.229 688.92,122.863 C686.682,122.496 684.392,122.623 682.208,123.234 C680.326,120.999 678.118,119.059 675.659,117.479 C678.981,115.778 682.658,114.891 686.389,114.889 Z M674.722,99.333 C674.722,96.239 675.952,93.272 678.139,91.084 C680.327,88.896 683.295,87.667 686.389,87.667 C689.483,87.667 692.451,88.896 694.638,91.084 C696.826,93.272 698.056,96.239 698.056,99.333 C698.056,102.428 696.826,105.395 694.638,107.583 C692.451,109.771 689.483,111 686.389,111 C683.295,111 680.327,109.771 678.139,107.583 C675.952,105.395 674.722,102.428 674.722,99.333 Z M686.389,95.444 C685.358,95.444 684.368,95.854 683.639,96.583 C682.91,97.313 682.5,98.302 682.5,99.333 C682.5,100.365 682.91,101.354 683.639,102.083 C684.368,102.812 685.358,103.222 686.389,103.222 C687.42,103.222 688.41,102.812 689.139,102.083 C689.868,101.354 690.278,100.365 690.278,99.333 C690.278,98.302 689.868,97.313 689.139,96.583 C688.41,95.854 687.42,95.444 686.389,95.444 Z" />
        </g>
    </g>
</svg>