<?xml version="1.0" encoding="UTF-8"?>
<svg height="600" width="800" xmlns="http://www.w3.org/2000/svg" xmlns:xlink="http://www.w3.org/1999/xlink">
    <g id="Notes" font-family="'LucidaGrande', 'Lucida Grande', sans-serif" font-size="13">
        <rect fill="white" height="600.0" width="800.0" x="0.0" y="0.0" />
        <g font-size="13">
            <text x="18.0" y="176.0">Small</text>
            <text x="18.0" y="376.0">Medium</text>
            <text x="18.0" y="576.0">Large</text>
        </g>
        <g font-size="9">
            <text x="250.0" y="30.0">Ultralight</text>
            <text x="450.0" y="30.0">Regular</text>
            <text x="650.0" y="30.0">Black</text>
            <text id="template-version" fill="#505050" text-anchor="end" x="785.0" y="575.0">Template v.3.0</text>
            <a href="https://wangchujiang.com/#/app">
                <text fill="#505050" text-anchor="end" x="785.0" y="590.0">https://wangchujiang.com/#/app</text>
            </a>
        </g>
    </g>
    <g id="Guides" stroke="rgb(39, 170, 225)" stroke-width="0.5">
        <path id="Capline-S" d="M18,76 l800,0" />
        <path id="H-reference" d="M85,145.755 L87.685,145.755 L113.369,79.287 L114.052,79.287 L114.052,76 L112.148,76 L85,145.755 Z M95.693,121.536 L130.996,121.536 L130.263,119.313 L96.474,119.313 L95.693,121.536 Z M139.15,145.755 L141.787,145.755 L114.638,76 L113.466,76 L113.466,79.287 L139.15,145.755 Z" stroke="none" />
        <path id="Baseline-S" d="M18,146 l800,0" />
        <path id="left-margin-Ultralight-S" d="M219.999,56 l0,110" />
        <path id="right-margin-Ultralight-S" d="M310.001,56 l0,110" />
        <path id="left-margin-Regular-S" d="M419.999,56 l0,110" />
        <path id="right-margin-Regular-S" d="M510.001,56 l0,110" />
        <path id="left-margin-Black-S" d="M619.999,56 l0,110" />
        <path id="right-margin-Black-S" d="M710.001,56 l0,110" />
        <path id="Capline-M" d="M18,276 l800,0" />
        <path id="Baseline-M" d="M18,346 l800,0" />
        <path id="Capline-L" d="M18,476 l800,0" />
        <path id="Baseline-L" d="M18,546 l800,0" />
    </g>
    <g id="Symbols">
        <g id="Ultralight-S">
            <path d="M229.999,107.136 C229.999,102.171 231.187,97.277 233.463,92.865 C235.739,88.452 239.038,84.647 243.083,81.768 C247.129,78.889 251.804,77.019 256.72,76.315 C261.635,75.611 266.647,76.092 271.339,77.718 C276.03,79.345 280.264,82.07 283.688,85.666 C287.112,89.262 289.627,93.624 291.022,98.39 C292.417,103.155 292.652,108.185 291.708,113.06 C290.764,117.935 288.668,122.513 285.594,126.413 L298.973,139.792 C299.64,140.482 300.01,141.408 300.001,142.368 C299.993,143.329 299.607,144.248 298.928,144.927 C298.249,145.606 297.33,145.991 296.37,146 C295.409,146.008 294.484,145.639 293.793,144.972 L280.414,131.593 C275.822,135.212 270.305,137.466 264.492,138.096 C258.679,138.725 252.807,137.706 247.547,135.154 C242.286,132.603 237.851,128.622 234.747,123.666 C231.644,118.711 229.998,112.983 229.999,107.136 Z M261.137,90.651 C260.166,90.651 259.234,91.037 258.547,91.724 C257.86,92.411 257.474,93.343 257.474,94.314 C257.474,95.286 257.86,96.218 258.547,96.905 C259.234,97.592 260.166,97.978 261.137,97.978 C263.566,97.978 265.896,98.943 267.614,100.66 C269.331,102.378 270.296,104.707 270.296,107.136 C270.296,108.108 270.682,109.04 271.369,109.726 C272.056,110.413 272.988,110.799 273.959,110.799 C274.931,110.799 275.863,110.413 276.55,109.726 C277.237,109.04 277.623,108.108 277.623,107.136 C277.623,102.764 275.886,98.571 272.794,95.479 C269.703,92.388 265.51,90.651 261.137,90.651 Z" />
        </g>
        <g id="Regular-S">
            <path d="M429.999,107.136 C429.999,102.171 431.187,97.277 433.463,92.865 C435.739,88.452 439.038,84.647 443.083,81.768 C447.129,78.889 451.804,77.019 456.72,76.315 C461.635,75.611 466.647,76.092 471.339,77.718 C476.03,79.345 480.264,82.07 483.688,85.666 C487.112,89.262 489.627,93.624 491.022,98.39 C492.417,103.155 492.652,108.185 491.708,113.06 C490.764,117.935 488.668,122.513 485.594,126.413 L498.973,139.792 C499.64,140.482 500.01,141.408 500.001,142.368 C499.993,143.329 499.607,144.248 498.928,144.927 C498.249,145.606 497.33,145.991 496.37,146 C495.409,146.008 494.484,145.639 493.793,144.972 L480.414,131.593 C475.823,135.212 470.305,137.466 464.492,138.096 C458.68,138.725 452.807,137.706 447.547,135.154 C442.286,132.603 437.851,128.622 434.747,123.666 C431.644,118.711 429.998,112.983 429.999,107.136 Z M461.137,90.651 C460.166,90.651 459.234,91.037 458.547,91.724 C457.86,92.411 457.474,93.343 457.474,94.314 C457.474,95.286 457.86,96.218 458.547,96.905 C459.234,97.592 460.166,97.978 461.137,97.978 C463.566,97.978 465.896,98.943 467.614,100.66 C469.331,102.378 470.296,104.707 470.296,107.136 C470.296,108.108 470.682,109.04 471.369,109.726 C472.056,110.413 472.988,110.799 473.959,110.799 C474.931,110.799 475.863,110.413 476.55,109.726 C477.237,109.04 477.623,108.108 477.623,107.136 C477.623,102.764 475.886,98.571 472.794,95.479 C469.703,92.388 465.51,90.651 461.137,90.651 Z" />
        </g>
        <g id="Black-S">
            <path d="M629.999,107.136 C629.999,102.171 631.187,97.277 633.463,92.865 C635.739,88.452 639.038,84.647 643.083,81.768 C647.129,78.889 651.804,77.019 656.72,76.315 C661.635,75.611 666.647,76.092 671.339,77.718 C676.03,79.345 680.264,82.07 683.688,85.666 C687.112,89.262 689.627,93.624 691.022,98.39 C692.417,103.155 692.652,108.185 691.708,113.06 C690.764,117.935 688.668,122.513 685.594,126.413 L698.973,139.792 C699.64,140.482 700.01,141.408 700.001,142.368 C699.993,143.329 699.607,144.248 698.928,144.927 C698.249,145.606 697.33,145.991 696.37,146 C695.409,146.008 694.484,145.639 693.793,144.972 L680.414,131.593 C675.822,135.212 670.305,137.466 664.492,138.096 C658.679,138.725 652.807,137.706 647.547,135.154 C642.286,132.603 637.851,128.622 634.747,123.666 C631.644,118.711 629.998,112.983 629.999,107.136 Z M661.137,90.651 C660.166,90.651 659.234,91.037 658.547,91.724 C657.86,92.411 657.474,93.343 657.474,94.314 C657.474,95.286 657.86,96.218 658.547,96.905 C659.234,97.592 660.166,97.978 661.137,97.978 C663.566,97.978 665.896,98.943 667.614,100.66 C669.331,102.378 670.296,104.707 670.296,107.136 C670.296,108.108 670.682,109.04 671.369,109.726 C672.056,110.413 672.988,110.799 673.959,110.799 C674.931,110.799 675.863,110.413 676.55,109.726 C677.237,109.04 677.623,108.108 677.623,107.136 C677.623,102.764 675.886,98.571 672.794,95.479 C669.703,92.388 665.51,90.651 661.137,90.651 Z" />
        </g>
    </g>
</svg>
