<?xml version="1.0" encoding="UTF-8"?>
<svg height="600" width="800" xmlns="http://www.w3.org/2000/svg" xmlns:xlink="http://www.w3.org/1999/xlink">
    <g id="Notes" font-family="'LucidaGrande', 'Lucida Grande', sans-serif" font-size="13">
        <rect fill="white" height="600.0" width="800.0" x="0.0" y="0.0" />
        <g font-size="13">
            <text x="18.0" y="176.0">Small</text>
            <text x="18.0" y="376.0">Medium</text>
            <text x="18.0" y="576.0">Large</text>
        </g>
        <g font-size="9">
            <text x="250.0" y="30.0">Ultralight</text>
            <text x="450.0" y="30.0">Regular</text>
            <text x="650.0" y="30.0">Black</text>
            <text id="template-version" fill="#505050" text-anchor="end" x="785.0" y="575.0">Template v.3.0</text>
            <a href="https://wangchujiang.com/#/app">
                <text fill="#505050" text-anchor="end" x="785.0" y="590.0">https://wangchujiang.com/#/app</text>
            </a>
        </g>
    </g>
    <g id="Guides" stroke="rgb(39, 170, 225)" stroke-width="0.5">
        <path id="Capline-S" d="M18,76 l800,0" />
        <path id="H-reference" d="M85,145.755 L87.685,145.755 L113.369,79.287 L114.052,79.287 L114.052,76 L112.148,76 L85,145.755 Z M95.693,121.536 L130.996,121.536 L130.263,119.313 L96.474,119.313 L95.693,121.536 Z M139.15,145.755 L141.787,145.755 L114.638,76 L113.466,76 L113.466,79.287 L139.15,145.755 Z" stroke="none" />
        <path id="Baseline-S" d="M18,146 l800,0" />
        <path id="left-margin-Ultralight-S" d="M221,56 l0,110" />
        <path id="right-margin-Ultralight-S" d="M309,56 l0,110" />
        <path id="left-margin-Regular-S" d="M421,56 l0,110" />
        <path id="right-margin-Regular-S" d="M509,56 l0,110" />
        <path id="left-margin-Black-S" d="M621,56 l0,110" />
        <path id="right-margin-Black-S" d="M709,56 l0,110" />
        <path id="Capline-M" d="M18,276 l800,0" />
        <path id="Baseline-M" d="M18,346 l800,0" />
        <path id="Capline-L" d="M18,476 l800,0" />
        <path id="Baseline-L" d="M18,546 l800,0" />
    </g>
    <g id="Symbols">
        <g id="Ultralight-S">
            <path d="M256.264,138.821 C257.216,138.821 258.129,139.199 258.802,139.872 C259.475,140.545 259.854,141.458 259.854,142.41 C259.854,143.362 259.475,144.276 258.802,144.949 C258.129,145.622 257.216,146 256.264,146 C255.312,146 254.399,145.622 253.726,144.949 C253.052,144.276 252.674,143.362 252.674,142.41 C252.674,141.458 253.052,140.545 253.726,139.872 C254.399,139.199 255.312,138.821 256.264,138.821 Z M281.392,138.821 C282.344,138.821 283.257,139.199 283.93,139.872 C284.603,140.545 284.982,141.458 284.982,142.41 C284.982,143.362 284.603,144.276 283.93,144.949 C283.257,145.622 282.344,146 281.392,146 C280.44,146 279.527,145.622 278.853,144.949 C278.18,144.276 277.802,143.362 277.802,142.41 C277.802,141.458 278.18,140.545 278.853,139.872 C279.527,139.199 280.44,138.821 281.392,138.821 Z M236.503,76.471 L236.88,76.722 L243.011,81.317 C244.054,82.1 244.865,83.152 245.355,84.361 L245.57,84.975 L291.684,84.975 C292.657,84.975 293.62,85.172 294.514,85.556 C295.409,85.939 296.216,86.501 296.887,87.206 C297.558,87.911 298.078,88.745 298.417,89.657 C298.755,90.57 298.904,91.541 298.856,92.513 L298.809,93.045 L297.169,106.165 C296.676,110.113 294.886,113.786 292.079,116.606 C289.272,119.426 285.607,121.234 281.661,121.744 L280.85,121.827 L254.598,124.017 L255.532,128.051 L286.777,128.051 C287.691,128.053 288.571,128.403 289.237,129.031 C289.902,129.659 290.302,130.517 290.356,131.431 C290.41,132.344 290.113,133.244 289.525,133.945 C288.938,134.647 288.105,135.098 287.197,135.206 L286.777,135.231 L255.532,135.231 C254.008,135.231 252.524,134.747 251.294,133.848 C250.064,132.949 249.152,131.682 248.69,130.23 L248.535,129.667 L238.7,87.057 L232.572,82.462 C231.872,81.937 231.387,81.174 231.21,80.317 C231.032,79.46 231.174,78.568 231.608,77.808 C232.043,77.048 232.74,76.473 233.568,76.191 C234.397,75.909 235.3,75.94 236.108,76.277 L236.503,76.471 Z M291.684,92.154 L247.243,92.154 L252.969,116.945 L280.251,114.673 C282.713,114.468 285.03,113.422 286.813,111.712 C288.596,110.001 289.736,107.73 290.043,105.278 L291.684,92.154 Z" />
        </g>
        <g id="Regular-S">
            <path d="M456.264,138.821 C457.216,138.821 458.129,139.199 458.802,139.872 C459.475,140.545 459.854,141.458 459.854,142.41 C459.854,143.362 459.475,144.276 458.802,144.949 C458.129,145.622 457.216,146 456.264,146 C455.312,146 454.399,145.622 453.726,144.949 C453.052,144.276 452.674,143.362 452.674,142.41 C452.674,141.458 453.052,140.545 453.726,139.872 C454.399,139.199 455.312,138.821 456.264,138.821 Z M481.392,138.821 C482.344,138.821 483.257,139.199 483.93,139.872 C484.603,140.545 484.982,141.458 484.982,142.41 C484.982,143.362 484.603,144.276 483.93,144.949 C483.257,145.622 482.344,146 481.392,146 C480.44,146 479.527,145.622 478.853,144.949 C478.18,144.276 477.802,143.362 477.802,142.41 C477.802,141.458 478.18,140.545 478.853,139.872 C479.527,139.199 480.44,138.821 481.392,138.821 Z M436.503,76.471 L436.88,76.722 L443.011,81.317 C444.054,82.1 444.865,83.152 445.355,84.361 L445.57,84.975 L491.684,84.975 C492.657,84.975 493.62,85.172 494.514,85.556 C495.409,85.939 496.216,86.501 496.887,87.206 C497.558,87.911 498.078,88.745 498.417,89.657 C498.755,90.57 498.904,91.541 498.856,92.513 L498.809,93.045 L497.169,106.165 C496.676,110.113 494.886,113.786 492.079,116.606 C489.272,119.426 485.607,121.234 481.661,121.744 L480.85,121.827 L454.598,124.017 L455.532,128.051 L486.777,128.051 C487.691,128.053 488.571,128.403 489.237,129.031 C489.902,129.659 490.302,130.517 490.356,131.431 C490.41,132.344 490.113,133.244 489.525,133.945 C488.938,134.647 488.105,135.098 487.197,135.206 L486.777,135.231 L455.532,135.231 C454.008,135.231 452.524,134.747 451.294,133.848 C450.064,132.949 449.152,131.682 448.69,130.23 L448.535,129.667 L438.7,87.057 L432.572,82.462 C431.872,81.937 431.387,81.174 431.21,80.317 C431.032,79.46 431.174,78.568 431.608,77.808 C432.043,77.048 432.74,76.473 433.568,76.191 C434.397,75.909 435.3,75.94 436.108,76.277 L436.503,76.471 Z M491.684,92.154 L447.243,92.154 L452.969,116.945 L480.251,114.673 C482.713,114.468 485.03,113.422 486.813,111.712 C488.596,110.001 489.736,107.73 490.043,105.278 L491.684,92.154 Z" />
        </g>
        <g id="Black-S">
            <path d="M656.264,138.821 C657.216,138.821 658.129,139.199 658.802,139.872 C659.475,140.545 659.854,141.458 659.854,142.41 C659.854,143.362 659.475,144.276 658.802,144.949 C658.129,145.622 657.216,146 656.264,146 C655.312,146 654.399,145.622 653.726,144.949 C653.052,144.276 652.674,143.362 652.674,142.41 C652.674,141.458 653.052,140.545 653.726,139.872 C654.399,139.199 655.312,138.821 656.264,138.821 Z M681.392,138.821 C682.344,138.821 683.257,139.199 683.93,139.872 C684.603,140.545 684.982,141.458 684.982,142.41 C684.982,143.362 684.603,144.276 683.93,144.949 C683.257,145.622 682.344,146 681.392,146 C680.44,146 679.527,145.622 678.853,144.949 C678.18,144.276 677.802,143.362 677.802,142.41 C677.802,141.458 678.18,140.545 678.853,139.872 C679.527,139.199 680.44,138.821 681.392,138.821 Z M636.503,76.471 L636.88,76.722 L643.011,81.317 C644.054,82.1 644.865,83.152 645.355,84.361 L645.57,84.975 L691.684,84.975 C692.657,84.975 693.62,85.172 694.514,85.556 C695.409,85.939 696.216,86.501 696.887,87.206 C697.558,87.911 698.078,88.745 698.417,89.657 C698.755,90.57 698.904,91.541 698.856,92.513 L698.809,93.045 L697.169,106.165 C696.676,110.113 694.886,113.786 692.079,116.606 C689.272,119.426 685.607,121.234 681.661,121.744 L680.85,121.827 L654.598,124.017 L655.532,128.051 L686.777,128.051 C687.691,128.053 688.571,128.403 689.237,129.031 C689.902,129.659 690.302,130.517 690.356,131.431 C690.41,132.344 690.112,133.244 689.525,133.945 C688.938,134.647 688.105,135.098 687.197,135.206 L686.777,135.231 L655.532,135.231 C654.008,135.231 652.524,134.747 651.294,133.848 C650.064,132.949 649.152,131.682 648.69,130.23 L648.535,129.667 L638.699,87.057 L632.572,82.462 C631.872,81.937 631.387,81.174 631.21,80.317 C631.032,79.46 631.174,78.568 631.608,77.808 C632.043,77.048 632.74,76.473 633.568,76.191 C634.397,75.909 635.3,75.94 636.108,76.277 L636.503,76.471 Z M691.684,92.154 L647.243,92.154 L652.969,116.945 L680.25,114.673 C682.713,114.468 685.029,113.422 686.812,111.712 C688.596,110.001 689.736,107.73 690.043,105.278 L691.684,92.154 Z" />
        </g>
    </g>
</svg>