<?xml version="1.0" encoding="UTF-8"?>
<svg height="600" width="800" xmlns="http://www.w3.org/2000/svg" xmlns:xlink="http://www.w3.org/1999/xlink">
    <g id="Notes" font-family="'LucidaGrande', 'Lucida Grande', sans-serif" font-size="13">
        <rect fill="white" height="600.0" width="800.0" x="0.0" y="0.0" />
        <g font-size="13">
            <text x="18.0" y="176.0">Small</text>
            <text x="18.0" y="376.0">Medium</text>
            <text x="18.0" y="576.0">Large</text>
        </g>
        <g font-size="9">
            <text x="250.0" y="30.0">Ultralight</text>
            <text x="450.0" y="30.0">Regular</text>
            <text x="650.0" y="30.0">Black</text>
            <text id="template-version" fill="#505050" text-anchor="end" x="785.0" y="575.0">Template v.3.0</text>
            <a href="https://wangchujiang.com/#/app">
                <text fill="#505050" text-anchor="end" x="785.0" y="590.0">https://wangchujiang.com/#/app</text>
            </a>
        </g>
    </g>
    <g id="Guides" stroke="rgb(39, 170, 225)" stroke-width="0.5">
        <path id="Capline-S" d="M18,76 l800,0" />
        <path id="H-reference" d="M85,145.755 L87.685,145.755 L113.369,79.287 L114.052,79.287 L114.052,76 L112.148,76 L85,145.755 Z M95.693,121.536 L130.996,121.536 L130.263,119.313 L96.474,119.313 L95.693,121.536 Z M139.15,145.755 L141.787,145.755 L114.638,76 L113.466,76 L113.466,79.287 L139.15,145.755 Z" stroke="none" />
        <path id="Baseline-S" d="M18,146 l800,0" />
        <path id="left-margin-Ultralight-S" d="M212.169,56 l0,110" />
        <path id="right-margin-Ultralight-S" d="M317.831,56 l0,110" />
        <path id="left-margin-Regular-S" d="M412.169,56 l0,110" />
        <path id="right-margin-Regular-S" d="M517.831,56 l0,110" />
        <path id="left-margin-Black-S" d="M612.169,56 l0,110" />
        <path id="right-margin-Black-S" d="M717.831,56 l0,110" />
        <path id="Capline-M" d="M18,276 l800,0" />
        <path id="Baseline-M" d="M18,346 l800,0" />
        <path id="Capline-L" d="M18,476 l800,0" />
        <path id="Baseline-L" d="M18,546 l800,0" />
    </g>
    <g id="Symbols">
        <g id="Ultralight-S">
            <path d="M261.396,76.564 C263.441,75.908 265.627,75.822 267.716,76.317 L268.601,76.564 L294.298,84.808 C295.046,85.055 295.718,85.519 296.21,86.168 L296.485,86.581 L307.3,105.25 C307.574,105.722 307.746,106.245 307.807,106.787 C307.867,107.329 307.815,107.877 307.652,108.398 C307.489,108.918 307.22,109.399 306.862,109.81 C306.503,110.22 306.063,110.552 305.57,110.784 L305.098,110.969 L297.032,113.556 L297.032,130.585 C297.031,132.142 296.568,133.664 295.702,134.958 C294.836,136.251 293.606,137.259 292.167,137.853 L291.569,138.073 L268.601,145.436 C266.557,146.092 264.371,146.177 262.281,145.683 L261.396,145.44 L238.429,138.073 C236.946,137.597 235.638,136.691 234.67,135.472 C233.703,134.251 233.119,132.771 232.994,131.219 L232.966,130.581 L232.966,113.556 L224.9,110.969 C224.381,110.802 223.903,110.53 223.495,110.169 C223.087,109.808 222.758,109.366 222.53,108.871 C222.302,108.376 222.179,107.839 222.17,107.295 C222.16,106.75 222.263,106.209 222.473,105.706 L222.698,105.25 L233.513,86.581 C233.918,85.882 234.529,85.324 235.263,84.984 L235.696,84.808 L261.396,76.564 Z M268.932,112.2 L268.932,137.071 L289.166,130.581 L289.166,116.081 L277.014,119.979 C276.234,120.229 275.396,120.229 274.617,119.98 C273.837,119.732 273.154,119.246 272.664,118.59 L272.412,118.205 L268.932,112.2 Z M261.066,112.2 L257.586,118.205 C257.136,118.981 256.434,119.58 255.597,119.903 C254.76,120.225 253.838,120.252 252.984,119.979 L240.832,116.081 L240.832,130.581 L261.066,137.075 L261.066,112.2 Z M238.728,93.263 L231.951,104.971 L252.367,111.523 L259.151,99.815 L238.728,93.263 Z M291.27,93.263 L270.847,99.815 L277.627,111.523 L298.046,104.971 L291.27,93.263 Z M266.198,84.052 C265.576,83.854 264.914,83.813 264.271,83.934 L263.799,84.052 L249.779,88.552 L264.999,93.432 L280.219,88.552 L266.198,84.052 Z" />
        </g>
        <g id="Regular-S">
            <path d="M461.396,76.564 C463.441,75.908 465.627,75.822 467.716,76.317 L468.601,76.564 L494.298,84.808 C495.046,85.055 495.718,85.519 496.21,86.168 L496.485,86.581 L507.3,105.25 C507.574,105.722 507.746,106.245 507.807,106.787 C507.867,107.329 507.815,107.877 507.652,108.398 C507.489,108.918 507.22,109.399 506.862,109.81 C506.503,110.22 506.063,110.552 505.57,110.784 L505.098,110.969 L497.032,113.556 L497.032,130.585 C497.031,132.142 496.568,133.664 495.702,134.958 C494.836,136.251 493.606,137.259 492.167,137.853 L491.569,138.073 L468.601,145.436 C466.557,146.092 464.371,146.177 462.281,145.683 L461.396,145.44 L438.429,138.073 C436.946,137.597 435.638,136.691 434.67,135.472 C433.703,134.251 433.119,132.771 432.994,131.219 L432.966,130.581 L432.966,113.556 L424.9,110.969 C424.381,110.802 423.903,110.53 423.495,110.169 C423.087,109.808 422.758,109.366 422.53,108.871 C422.302,108.376 422.179,107.839 422.17,107.295 C422.16,106.75 422.263,106.209 422.473,105.706 L422.698,105.25 L433.513,86.581 C433.918,85.882 434.529,85.324 435.263,84.984 L435.696,84.808 L461.396,76.564 Z M468.932,112.2 L468.932,137.071 L489.166,130.581 L489.166,116.081 L477.014,119.979 C476.234,120.229 475.396,120.229 474.617,119.98 C473.837,119.732 473.154,119.246 472.664,118.59 L472.412,118.205 L468.932,112.2 Z M461.066,112.2 L457.586,118.205 C457.136,118.981 456.434,119.58 455.597,119.903 C454.76,120.225 453.838,120.252 452.984,119.979 L440.832,116.081 L440.832,130.581 L461.066,137.075 L461.066,112.2 Z M438.728,93.263 L431.952,104.971 L452.367,111.523 L459.151,99.815 L438.728,93.263 Z M491.27,93.263 L470.847,99.815 L477.627,111.523 L498.046,104.971 L491.27,93.263 Z M466.198,84.052 C465.576,83.854 464.914,83.813 464.271,83.934 L463.799,84.052 L449.779,88.552 L464.999,93.432 L480.219,88.552 L466.198,84.052 Z" />
        </g>
        <g id="Black-S">
            <path d="M661.396,76.564 C663.441,75.908 665.627,75.822 667.716,76.317 L668.601,76.564 L694.298,84.808 C695.046,85.055 695.718,85.519 696.21,86.168 L696.485,86.581 L707.3,105.25 C707.574,105.722 707.746,106.245 707.807,106.787 C707.867,107.329 707.815,107.877 707.652,108.398 C707.489,108.918 707.22,109.399 706.862,109.81 C706.503,110.22 706.063,110.552 705.57,110.784 L705.098,110.969 L697.032,113.556 L697.032,130.585 C697.031,132.142 696.568,133.664 695.702,134.958 C694.836,136.251 693.606,137.259 692.167,137.853 L691.569,138.073 L668.601,145.436 C666.557,146.092 664.371,146.177 662.281,145.683 L661.396,145.44 L638.429,138.073 C636.946,137.597 635.638,136.691 634.67,135.472 C633.703,134.251 633.119,132.771 632.994,131.219 L632.966,130.581 L632.966,113.556 L624.9,110.969 C624.381,110.802 623.903,110.53 623.495,110.169 C623.087,109.808 622.758,109.366 622.53,108.871 C622.302,108.376 622.179,107.839 622.17,107.295 C622.16,106.75 622.263,106.209 622.473,105.706 L622.698,105.25 L633.513,86.581 C633.918,85.882 634.529,85.324 635.263,84.984 L635.696,84.808 L661.396,76.564 Z M668.932,112.2 L668.932,137.071 L689.166,130.581 L689.166,116.081 L677.014,119.979 C676.234,120.229 675.396,120.229 674.617,119.98 C673.837,119.732 673.154,119.246 672.664,118.59 L672.412,118.205 L668.932,112.2 Z M661.066,112.2 L657.586,118.205 C657.136,118.981 656.434,119.58 655.597,119.903 C654.76,120.225 653.838,120.252 652.984,119.979 L640.832,116.081 L640.832,130.581 L661.066,137.075 L661.066,112.2 Z M638.728,93.263 L631.951,104.971 L652.367,111.523 L659.151,99.815 L638.728,93.263 Z M691.27,93.263 L670.847,99.815 L677.627,111.523 L698.046,104.971 L691.27,93.263 Z M666.198,84.052 C665.576,83.854 664.914,83.813 664.271,83.934 L663.799,84.052 L649.779,88.552 L664.999,93.432 L680.219,88.552 L666.198,84.052 Z" />
        </g>
    </g>
</svg>