<?xml version="1.0" encoding="UTF-8"?>
<svg height="600" width="800" xmlns="http://www.w3.org/2000/svg" xmlns:xlink="http://www.w3.org/1999/xlink">
    <g id="Notes" font-family="'LucidaGrande', 'Lucida Grande', sans-serif" font-size="13">
        <rect fill="white" height="600.0" width="800.0" x="0.0" y="0.0" />
        <g font-size="13">
            <text x="18.0" y="176.0">Small</text>
            <text x="18.0" y="376.0">Medium</text>
            <text x="18.0" y="576.0">Large</text>
        </g>
        <g font-size="9">
            <text x="250.0" y="30.0">Ultralight</text>
            <text x="450.0" y="30.0">Regular</text>
            <text x="650.0" y="30.0">Black</text>
            <text id="template-version" fill="#505050" text-anchor="end" x="785.0" y="575.0">Template v.3.0</text>
            <a href="https://wangchujiang.com/#/app">
                <text fill="#505050" text-anchor="end" x="785.0" y="590.0">https://wangchujiang.com/#/app</text>
            </a>
        </g>
    </g>
    <g id="Guides" stroke="rgb(39, 170, 225)" stroke-width="0.5">
        <path id="Capline-S" d="M18,76 l800,0" />
        <path id="H-reference" d="M85,145.755 L87.685,145.755 L113.369,79.287 L114.052,79.287 L114.052,76 L112.148,76 L85,145.755 Z M95.693,121.536 L130.996,121.536 L130.263,119.313 L96.474,119.313 L95.693,121.536 Z M139.15,145.755 L141.787,145.755 L114.638,76 L113.466,76 L113.466,79.287 L139.15,145.755 Z" stroke="none" />
        <path id="Baseline-S" d="M18,146 l800,0" />
        <path id="left-margin-Ultralight-S" d="M214.188,56 l0,110" />
        <path id="right-margin-Ultralight-S" d="M315.812,56 l0,110" />
        <path id="left-margin-Regular-S" d="M414.188,56 l0,110" />
        <path id="right-margin-Regular-S" d="M515.812,56 l0,110" />
        <path id="left-margin-Black-S" d="M614.188,56 l0,110" />
        <path id="right-margin-Black-S" d="M715.812,56 l0,110" />
        <path id="Capline-M" d="M18,276 l800,0" />
        <path id="Baseline-M" d="M18,346 l800,0" />
        <path id="Capline-L" d="M18,476 l800,0" />
        <path id="Baseline-L" d="M18,546 l800,0" />
    </g>
    <g id="Symbols">
        <g id="Ultralight-S">
            <path d="M268.601,76.563 C266.259,75.812 263.739,75.812 261.397,76.563 L235.701,84.806 C234.778,85.106 234,85.737 233.514,86.576 L224.717,101.772 C224.422,102.28 224.246,102.848 224.2,103.434 C224.154,104.02 224.24,104.608 224.451,105.156 C224.662,105.704 224.993,106.198 225.421,106.601 C225.848,107.004 226.36,107.307 226.919,107.486 L254.998,116.5 C255.853,116.774 256.776,116.748 257.613,116.425 C258.452,116.103 259.154,115.503 259.603,114.726 L261.066,112.201 L261.066,121.314 C261.066,121.933 260.92,122.544 260.639,123.096 C260.358,123.648 259.951,124.127 259.45,124.492 C258.949,124.856 258.37,125.098 257.758,125.196 C257.146,125.295 256.52,125.247 255.93,125.057 L232.971,117.691 L232.971,130.583 C232.97,132.249 233.499,133.872 234.48,135.218 C235.461,136.565 236.844,137.565 238.43,138.075 L261.397,145.437 C263.739,146.188 266.259,146.188 268.601,145.437 L291.568,138.075 C293.155,137.566 294.539,136.566 295.521,135.219 C296.503,133.873 297.031,132.249 297.031,130.583 L297.023,117.691 L274.068,125.057 C273.478,125.247 272.851,125.295 272.239,125.196 C271.627,125.098 271.047,124.856 270.546,124.49 C270.046,124.125 269.638,123.646 269.358,123.093 C269.077,122.541 268.931,121.929 268.932,121.31 L268.932,112.198 L270.391,114.722 C270.841,115.499 271.544,116.097 272.382,116.419 C273.219,116.741 274.142,116.767 274.996,116.492 L303.079,107.486 C303.639,107.307 304.152,107.004 304.579,106.601 C305.007,106.197 305.338,105.703 305.549,105.154 C305.761,104.606 305.846,104.017 305.8,103.431 C305.754,102.845 305.577,102.277 305.282,101.768 L296.484,86.576 C295.999,85.737 295.22,85.106 294.298,84.806 L268.601,76.563 Z M280.215,88.55 L264.999,93.431 L249.78,88.55 L263.796,84.051 C264.577,83.801 265.417,83.801 266.199,84.051 L280.215,88.55 Z" />
        </g>
        <g id="Regular-S">
            <path d="M468.601,76.563 C466.259,75.812 463.739,75.812 461.397,76.563 L435.701,84.806 C434.778,85.106 434,85.737 433.514,86.576 L424.717,101.772 C424.422,102.28 424.246,102.848 424.2,103.434 C424.154,104.02 424.24,104.608 424.451,105.156 C424.662,105.704 424.993,106.198 425.421,106.601 C425.848,107.004 426.36,107.307 426.919,107.486 L454.998,116.5 C455.853,116.774 456.776,116.748 457.613,116.425 C458.452,116.103 459.154,115.503 459.603,114.726 L461.066,112.201 L461.066,121.314 C461.066,121.933 460.92,122.544 460.639,123.096 C460.358,123.648 459.951,124.127 459.45,124.492 C458.949,124.856 458.37,125.098 457.758,125.196 C457.146,125.295 456.52,125.247 455.93,125.057 L432.971,117.691 L432.971,130.583 C432.97,132.249 433.499,133.872 434.48,135.218 C435.461,136.565 436.844,137.565 438.43,138.075 L461.397,145.437 C463.739,146.188 466.259,146.188 468.601,145.437 L491.568,138.075 C493.155,137.566 494.539,136.566 495.521,135.219 C496.503,133.873 497.031,132.249 497.031,130.583 L497.023,117.691 L474.068,125.057 C473.478,125.247 472.851,125.295 472.239,125.196 C471.627,125.098 471.047,124.856 470.546,124.49 C470.046,124.125 469.638,123.646 469.358,123.093 C469.077,122.541 468.931,121.929 468.932,121.31 L468.932,112.198 L470.391,114.722 C470.841,115.499 471.544,116.097 472.382,116.419 C473.219,116.741 474.142,116.767 474.996,116.492 L503.079,107.486 C503.639,107.307 504.152,107.004 504.579,106.601 C505.007,106.197 505.338,105.703 505.549,105.154 C505.761,104.606 505.846,104.017 505.8,103.431 C505.754,102.845 505.577,102.277 505.282,101.768 L496.484,86.576 C495.999,85.737 495.22,85.106 494.298,84.806 L468.601,76.563 Z M480.215,88.55 L464.999,93.431 L449.78,88.55 L463.796,84.051 C464.577,83.801 465.417,83.801 466.199,84.051 L480.215,88.55 Z" />
        </g>
        <g id="Black-S">
            <path d="M668.601,76.563 C666.259,75.812 663.739,75.812 661.397,76.563 L635.701,84.806 C634.778,85.106 634,85.737 633.514,86.576 L624.716,101.772 C624.422,102.28 624.246,102.848 624.2,103.434 C624.154,104.02 624.24,104.608 624.451,105.156 C624.662,105.704 624.993,106.198 625.42,106.601 C625.848,107.004 626.36,107.307 626.919,107.486 L654.998,116.5 C655.853,116.774 656.776,116.748 657.613,116.425 C658.452,116.103 659.154,115.503 659.603,114.726 L661.066,112.201 L661.066,121.314 C661.066,121.933 660.92,122.544 660.639,123.096 C660.358,123.648 659.951,124.127 659.45,124.492 C658.949,124.856 658.37,125.098 657.758,125.196 C657.146,125.295 656.52,125.247 655.93,125.057 L632.971,117.691 L632.971,130.583 C632.97,132.249 633.499,133.872 634.48,135.218 C635.461,136.565 636.844,137.565 638.43,138.075 L661.397,145.437 C663.739,146.188 666.259,146.188 668.601,145.437 L691.568,138.075 C693.155,137.566 694.539,136.566 695.521,135.219 C696.503,133.873 697.031,132.249 697.031,130.583 L697.023,117.691 L674.068,125.057 C673.478,125.247 672.851,125.295 672.239,125.196 C671.627,125.098 671.047,124.856 670.546,124.49 C670.045,124.125 669.638,123.646 669.358,123.093 C669.077,122.541 668.931,121.929 668.932,121.31 L668.932,112.198 L670.391,114.722 C670.841,115.499 671.544,116.097 672.382,116.419 C673.219,116.741 674.142,116.767 674.996,116.492 L703.079,107.486 C703.639,107.307 704.152,107.004 704.579,106.601 C705.007,106.197 705.338,105.703 705.549,105.154 C705.761,104.606 705.846,104.017 705.8,103.431 C705.754,102.845 705.577,102.277 705.282,101.768 L696.484,86.576 C695.998,85.737 695.22,85.106 694.298,84.806 L668.601,76.563 Z M680.215,88.55 L664.999,93.431 L649.78,88.55 L663.796,84.051 C664.577,83.801 665.417,83.801 666.199,84.051 L680.215,88.55 Z" />
        </g>
    </g>
</svg>