<?xml version="1.0" encoding="UTF-8"?>
<svg height="600" width="800" xmlns="http://www.w3.org/2000/svg" xmlns:xlink="http://www.w3.org/1999/xlink">
    <g id="Notes" font-family="'LucidaGrande', 'Lucida Grande', sans-serif" font-size="13">
        <rect fill="white" height="600.0" width="800.0" x="0.0" y="0.0" />
        <g font-size="13">
            <text x="18.0" y="176.0">Small</text>
            <text x="18.0" y="376.0">Medium</text>
            <text x="18.0" y="576.0">Large</text>
        </g>
        <g font-size="9">
            <text x="250.0" y="30.0">Ultralight</text>
            <text x="450.0" y="30.0">Regular</text>
            <text x="650.0" y="30.0">Black</text>
            <text id="template-version" fill="#505050" text-anchor="end" x="785.0" y="575.0">Template v.3.0</text>
            <a href="https://wangchujiang.com/#/app">
                <text fill="#505050" text-anchor="end" x="785.0" y="590.0">https://wangchujiang.com/#/app</text>
            </a>
        </g>
    </g>
    <g id="Guides" stroke="rgb(39, 170, 225)" stroke-width="0.5">
        <path id="Capline-S" d="M18,76 l800,0" />
        <path id="H-reference" d="M85,145.755 L87.685,145.755 L113.369,79.287 L114.052,79.287 L114.052,76 L112.148,76 L85,145.755 Z M95.693,121.536 L130.996,121.536 L130.263,119.313 L96.474,119.313 L95.693,121.536 Z M139.15,145.755 L141.787,145.755 L114.638,76 L113.466,76 L113.466,79.287 L139.15,145.755 Z" stroke="none" />
        <path id="Baseline-S" d="M18,146 l800,0" />
        <path id="left-margin-Ultralight-S" d="M221,56 l0,110" />
        <path id="right-margin-Ultralight-S" d="M309,56 l0,110" />
        <path id="left-margin-Regular-S" d="M421,56 l0,110" />
        <path id="right-margin-Regular-S" d="M509,56 l0,110" />
        <path id="left-margin-Black-S" d="M621,56 l0,110" />
        <path id="right-margin-Black-S" d="M709,56 l0,110" />
        <path id="Capline-M" d="M18,276 l800,0" />
        <path id="Baseline-M" d="M18,346 l800,0" />
        <path id="Capline-L" d="M18,476 l800,0" />
        <path id="Baseline-L" d="M18,546 l800,0" />
    </g>
    <g id="Symbols">
        <g id="Ultralight-S">
            <path d="M269.48,77.493 C268.188,76.524 266.615,76 265,76 C263.385,76 261.812,76.524 260.52,77.493 L234.387,97.093 C233.459,97.789 232.707,98.691 232.188,99.727 C231.67,100.764 231.4,101.908 231.4,103.067 L231.4,138.533 C231.4,140.513 232.187,142.413 233.587,143.813 C234.987,145.213 236.886,146 238.867,146 L253.427,146 C254.516,146 255.56,145.567 256.331,144.797 C257.101,144.027 257.533,142.982 257.533,141.893 L257.533,123.6 C257.533,121.62 258.32,119.721 259.72,118.32 C261.121,116.92 263.02,116.133 265,116.133 C266.98,116.133 268.879,116.92 270.28,118.32 C271.68,119.721 272.467,121.62 272.467,123.6 L272.467,141.893 C272.467,142.982 272.899,144.027 273.67,144.797 C274.44,145.567 275.484,146 276.573,146 L291.133,146 C293.113,146 295.013,145.213 296.413,143.813 C297.813,142.413 298.6,140.513 298.6,138.533 L298.6,103.067 C298.6,101.908 298.33,100.764 297.812,99.727 C297.293,98.691 296.541,97.789 295.613,97.093 L269.48,77.493 Z" />
        </g>
        <g id="Regular-S">
            <path d="M469.48,77.493 C468.188,76.524 466.615,76 465,76 C463.385,76 461.812,76.524 460.52,77.493 L434.387,97.093 C433.459,97.789 432.707,98.691 432.188,99.727 C431.67,100.764 431.4,101.908 431.4,103.067 L431.4,138.533 C431.4,140.513 432.187,142.413 433.587,143.813 C434.987,145.213 436.886,146 438.867,146 L453.427,146 C454.516,146 455.56,145.567 456.331,144.797 C457.101,144.027 457.533,142.982 457.533,141.893 L457.533,123.6 C457.533,121.62 458.32,119.721 459.72,118.32 C461.121,116.92 463.02,116.133 465,116.133 C466.98,116.133 468.879,116.92 470.28,118.32 C471.68,119.721 472.467,121.62 472.467,123.6 L472.467,141.893 C472.467,142.982 472.899,144.027 473.67,144.797 C474.44,145.567 475.484,146 476.573,146 L491.133,146 C493.113,146 495.013,145.213 496.413,143.813 C497.813,142.413 498.6,140.513 498.6,138.533 L498.6,103.067 C498.6,101.908 498.33,100.764 497.812,99.727 C497.293,98.691 496.541,97.789 495.613,97.093 L469.48,77.493 Z" />
        </g>
        <g id="Black-S">
            <path d="M669.48,77.493 C668.188,76.524 666.615,76 665,76 C663.385,76 661.812,76.524 660.52,77.493 L634.387,97.093 C633.459,97.789 632.707,98.691 632.188,99.727 C631.67,100.764 631.4,101.908 631.4,103.067 L631.4,138.533 C631.4,140.513 632.187,142.413 633.587,143.813 C634.987,145.213 636.886,146 638.867,146 L653.427,146 C654.516,146 655.56,145.567 656.331,144.797 C657.101,144.027 657.533,142.982 657.533,141.893 L657.533,123.6 C657.533,121.62 658.32,119.721 659.72,118.32 C661.121,116.92 663.02,116.133 665,116.133 C666.98,116.133 668.879,116.92 670.28,118.32 C671.68,119.721 672.467,121.62 672.467,123.6 L672.467,141.893 C672.467,142.982 672.899,144.027 673.67,144.797 C674.44,145.567 675.484,146 676.573,146 L691.133,146 C693.114,146 695.013,145.213 696.413,143.813 C697.813,142.413 698.6,140.513 698.6,138.533 L698.6,103.067 C698.6,101.908 698.33,100.764 697.812,99.727 C697.293,98.691 696.541,97.789 695.613,97.093 L669.48,77.493 Z" />
        </g>
    </g>
</svg>