<?xml version="1.0" encoding="UTF-8"?>
<svg height="600" width="800" xmlns="http://www.w3.org/2000/svg" xmlns:xlink="http://www.w3.org/1999/xlink">
    <g id="Notes" font-family="'LucidaGrande', 'Lucida Grande', sans-serif" font-size="13">
        <rect fill="white" height="600.0" width="800.0" x="0.0" y="0.0" />
        <g font-size="13">
            <text x="18.0" y="176.0">Small</text>
            <text x="18.0" y="376.0">Medium</text>
            <text x="18.0" y="576.0">Large</text>
        </g>
        <g font-size="9">
            <text x="250.0" y="30.0">Ultralight</text>
            <text x="450.0" y="30.0">Regular</text>
            <text x="650.0" y="30.0">Black</text>
            <text id="template-version" fill="#505050" text-anchor="end" x="785.0" y="575.0">Template v.3.0</text>
            <a href="https://wangchujiang.com/#/app">
                <text fill="#505050" text-anchor="end" x="785.0" y="590.0">https://wangchujiang.com/#/app</text>
            </a>
        </g>
    </g>
    <g id="Guides" stroke="rgb(39, 170, 225)" stroke-width="0.5">
        <path id="Capline-S" d="M18,76 l800,0" />
        <path id="H-reference" d="M85,145.755 L87.685,145.755 L113.369,79.287 L114.052,79.287 L114.052,76 L112.148,76 L85,145.755 Z M95.693,121.536 L130.996,121.536 L130.263,119.313 L96.474,119.313 L95.693,121.536 Z M139.15,145.755 L141.787,145.755 L114.638,76 L113.466,76 L113.466,79.287 L139.15,145.755 Z" stroke="none" />
        <path id="Baseline-S" d="M18,146 l800,0" />
        <path id="left-margin-Ultralight-S" d="M221,56 l0,110" />
        <path id="right-margin-Ultralight-S" d="M309,56 l0,110" />
        <path id="left-margin-Regular-S" d="M421,56 l0,110" />
        <path id="right-margin-Regular-S" d="M509,56 l0,110" />
        <path id="left-margin-Black-S" d="M621,56 l0,110" />
        <path id="right-margin-Black-S" d="M709,56 l0,110" />
        <path id="Capline-M" d="M18,276 l800,0" />
        <path id="Baseline-M" d="M18,346 l800,0" />
        <path id="Capline-L" d="M18,476 l800,0" />
        <path id="Baseline-L" d="M18,546 l800,0" />
    </g>
    <g id="Symbols">
        <g id="Ultralight-S">
            <path d="M256.263,138.821 C257.216,138.821 258.129,139.199 258.802,139.872 C259.475,140.545 259.853,141.458 259.853,142.41 C259.853,143.362 259.475,144.275 258.802,144.949 C258.129,145.622 257.216,146 256.263,146 C255.311,146 254.398,145.622 253.725,144.949 C253.052,144.275 252.674,143.362 252.674,142.41 C252.674,141.458 253.052,140.545 253.725,139.872 C254.398,139.199 255.311,138.821 256.263,138.821 Z M281.392,138.821 C282.344,138.821 283.257,139.199 283.93,139.872 C284.603,140.545 284.981,141.458 284.981,142.41 C284.981,143.362 284.603,144.275 283.93,144.949 C283.257,145.622 282.344,146 281.392,146 C280.44,146 279.526,145.622 278.853,144.949 C278.18,144.275 277.802,143.362 277.802,142.41 C277.802,141.458 278.18,140.545 278.853,139.872 C279.526,139.199 280.44,138.821 281.392,138.821 Z M231.853,77.436 C232.378,76.737 233.139,76.253 233.995,76.075 C234.851,75.897 235.742,76.038 236.502,76.471 L236.879,76.722 L243.01,81.317 C244.054,82.1 244.864,83.152 245.354,84.361 L245.57,84.975 L291.683,84.975 C292.656,84.974 293.62,85.172 294.514,85.555 C295.408,85.939 296.216,86.5 296.887,87.205 C297.557,87.91 298.078,88.744 298.416,89.657 C298.755,90.569 298.904,91.541 298.856,92.513 L298.809,93.044 L297.168,106.165 C296.676,110.113 294.886,113.786 292.079,116.606 C289.271,119.426 285.607,121.233 281.661,121.744 L280.85,121.827 L254.598,124.017 L255.531,128.051 L286.776,128.051 C287.691,128.052 288.571,128.403 289.237,129.031 C289.902,129.659 290.302,130.517 290.356,131.431 C290.409,132.344 290.112,133.244 289.525,133.945 C288.938,134.647 288.105,135.098 287.196,135.206 L286.776,135.231 L255.531,135.231 C254.008,135.231 252.524,134.747 251.294,133.848 C250.064,132.949 249.152,131.682 248.689,130.23 L248.535,129.667 L238.699,87.057 L232.571,82.462 C231.81,81.891 231.306,81.04 231.171,80.098 C231.037,79.155 231.282,78.198 231.853,77.436 Z" />
        </g>
        <g id="Regular-S">
            <path d="M456.263,138.821 C457.216,138.821 458.129,139.199 458.802,139.872 C459.475,140.545 459.853,141.458 459.853,142.41 C459.853,143.362 459.475,144.275 458.802,144.949 C458.129,145.622 457.216,146 456.263,146 C455.311,146 454.398,145.622 453.725,144.949 C453.052,144.275 452.674,143.362 452.674,142.41 C452.674,141.458 453.052,140.545 453.725,139.872 C454.398,139.199 455.311,138.821 456.263,138.821 Z M481.392,138.821 C482.344,138.821 483.257,139.199 483.93,139.872 C484.603,140.545 484.981,141.458 484.981,142.41 C484.981,143.362 484.603,144.275 483.93,144.949 C483.257,145.622 482.344,146 481.392,146 C480.44,146 479.526,145.622 478.853,144.949 C478.18,144.275 477.802,143.362 477.802,142.41 C477.802,141.458 478.18,140.545 478.853,139.872 C479.526,139.199 480.44,138.821 481.392,138.821 Z M431.853,77.436 C432.378,76.737 433.139,76.253 433.995,76.075 C434.851,75.897 435.742,76.038 436.502,76.471 L436.879,76.722 L443.01,81.317 C444.054,82.1 444.864,83.152 445.354,84.361 L445.57,84.975 L491.683,84.975 C492.656,84.974 493.62,85.172 494.514,85.555 C495.408,85.939 496.216,86.5 496.887,87.205 C497.557,87.91 498.078,88.744 498.416,89.657 C498.755,90.569 498.904,91.541 498.856,92.513 L498.809,93.044 L497.168,106.165 C496.676,110.113 494.886,113.786 492.079,116.606 C489.271,119.426 485.607,121.233 481.661,121.744 L480.85,121.827 L454.598,124.017 L455.531,128.051 L486.776,128.051 C487.691,128.052 488.571,128.403 489.237,129.031 C489.902,129.659 490.302,130.517 490.356,131.431 C490.409,132.344 490.112,133.244 489.525,133.945 C488.938,134.647 488.105,135.098 487.196,135.206 L486.776,135.231 L455.531,135.231 C454.008,135.231 452.524,134.747 451.294,133.848 C450.064,132.949 449.152,131.682 448.689,130.23 L448.535,129.667 L438.699,87.057 L432.571,82.462 C431.81,81.891 431.306,81.04 431.172,80.098 C431.037,79.155 431.282,78.198 431.853,77.436 Z" />
        </g>
        <g id="Black-S">
            <path d="M656.263,138.821 C657.216,138.821 658.129,139.199 658.802,139.872 C659.475,140.545 659.853,141.458 659.853,142.41 C659.853,143.362 659.475,144.275 658.802,144.949 C658.129,145.622 657.216,146 656.263,146 C655.311,146 654.398,145.622 653.725,144.949 C653.052,144.275 652.674,143.362 652.674,142.41 C652.674,141.458 653.052,140.545 653.725,139.872 C654.398,139.199 655.311,138.821 656.263,138.821 Z M681.392,138.821 C682.344,138.821 683.257,139.199 683.93,139.872 C684.603,140.545 684.981,141.458 684.981,142.41 C684.981,143.362 684.603,144.275 683.93,144.949 C683.257,145.622 682.344,146 681.392,146 C680.44,146 679.526,145.622 678.853,144.949 C678.18,144.275 677.802,143.362 677.802,142.41 C677.802,141.458 678.18,140.545 678.853,139.872 C679.526,139.199 680.44,138.821 681.392,138.821 Z M631.853,77.436 C632.378,76.737 633.139,76.253 633.995,76.075 C634.851,75.897 635.742,76.038 636.502,76.471 L636.879,76.722 L643.01,81.317 C644.054,82.1 644.864,83.152 645.354,84.361 L645.57,84.975 L691.683,84.975 C692.656,84.974 693.62,85.172 694.514,85.555 C695.408,85.939 696.216,86.5 696.887,87.205 C697.557,87.91 698.078,88.744 698.416,89.657 C698.755,90.569 698.904,91.541 698.856,92.513 L698.809,93.044 L697.168,106.165 C696.676,110.113 694.886,113.786 692.078,116.606 C689.271,119.426 685.607,121.233 681.661,121.744 L680.849,121.827 L654.598,124.017 L655.531,128.051 L686.776,128.051 C687.691,128.052 688.571,128.403 689.237,129.031 C689.902,129.659 690.302,130.517 690.356,131.431 C690.409,132.344 690.112,133.244 689.525,133.945 C688.938,134.647 688.105,135.098 687.196,135.206 L686.776,135.231 L655.531,135.231 C654.008,135.231 652.524,134.747 651.294,133.848 C650.064,132.949 649.152,131.682 648.689,130.23 L648.535,129.667 L638.699,87.057 L632.571,82.462 C631.81,81.891 631.306,81.04 631.171,80.098 C631.037,79.155 631.282,78.198 631.853,77.436 Z" />
        </g>
    </g>
</svg>