<?xml version="1.0" encoding="UTF-8"?>
<svg height="600" width="800" xmlns="http://www.w3.org/2000/svg" xmlns:xlink="http://www.w3.org/1999/xlink">
    <g id="Notes" font-family="'LucidaGrande', 'Lucida Grande', sans-serif" font-size="13">
        <rect fill="white" height="600.0" width="800.0" x="0.0" y="0.0" />
        <g font-size="13">
            <text x="18.0" y="176.0">Small</text>
            <text x="18.0" y="376.0">Medium</text>
            <text x="18.0" y="576.0">Large</text>
        </g>
        <g font-size="9">
            <text x="250.0" y="30.0">Ultralight</text>
            <text x="450.0" y="30.0">Regular</text>
            <text x="650.0" y="30.0">Black</text>
            <text id="template-version" fill="#505050" text-anchor="end" x="785.0" y="575.0">Template v.3.0</text>
            <a href="https://wangchujiang.com/#/app">
                <text fill="#505050" text-anchor="end" x="785.0" y="590.0">https://wangchujiang.com/#/app</text>
            </a>
        </g>
    </g>
    <g id="Guides" stroke="rgb(39, 170, 225)" stroke-width="0.5">
        <path id="Capline-S" d="M18,76 l800,0" />
        <path id="H-reference" d="M85,145.755 L87.685,145.755 L113.369,79.287 L114.052,79.287 L114.052,76 L112.148,76 L85,145.755 Z M95.693,121.536 L130.996,121.536 L130.263,119.313 L96.474,119.313 L95.693,121.536 Z M139.15,145.755 L141.787,145.755 L114.638,76 L113.466,76 L113.466,79.287 L139.15,145.755 Z" stroke="none" />
        <path id="Baseline-S" d="M18,146 l800,0" />
        <path id="left-margin-Ultralight-S" d="M214.167,56 l0,110" />
        <path id="right-margin-Ultralight-S" d="M315.833,56 l0,110" />
        <path id="left-margin-Regular-S" d="M414.167,56 l0,110" />
        <path id="right-margin-Regular-S" d="M515.833,56 l0,110" />
        <path id="left-margin-Black-S" d="M614.167,56 l0,110" />
        <path id="right-margin-Black-S" d="M715.833,56 l0,110" />
        <path id="Capline-M" d="M18,276 l800,0" />
        <path id="Baseline-M" d="M18,346 l800,0" />
        <path id="Capline-L" d="M18,476 l800,0" />
        <path id="Baseline-L" d="M18,546 l800,0" />
    </g>
    <g id="Symbols">
        <g id="Ultralight-S">
            <path d="M253.333,111 C257.975,111 262.426,109.156 265.708,105.874 C268.99,102.592 270.833,98.141 270.833,93.5 C270.833,88.859 268.99,84.408 265.708,81.126 C262.426,77.844 257.975,76 253.333,76 C248.692,76 244.241,77.844 240.959,81.126 C237.677,84.408 235.833,88.859 235.833,93.5 C235.833,98.141 237.677,102.592 240.959,105.874 C244.241,109.156 248.692,111 253.333,111 Z M298.056,99.333 C298.056,102.428 296.826,105.395 294.638,107.583 C292.451,109.771 289.483,111 286.389,111 C283.295,111 280.327,109.771 278.139,107.583 C275.952,105.395 274.722,102.428 274.722,99.333 C274.722,96.239 275.952,93.272 278.139,91.084 C280.327,88.896 283.295,87.667 286.389,87.667 C289.483,87.667 292.451,88.896 294.638,91.084 C296.826,93.272 298.056,96.239 298.056,99.333 Z M253.333,114.889 C261.084,114.889 268.131,117.253 273.311,120.59 C275.904,122.262 278.125,124.234 279.739,126.384 C281.322,128.504 282.5,131.051 282.5,133.777 C282.5,136.713 281.139,139.066 279.14,140.766 C277.254,142.36 274.796,143.394 272.257,144.106 C267.151,145.533 260.396,146 253.333,146 C246.271,146 239.516,145.533 234.414,144.106 C231.871,143.394 229.413,142.36 227.531,140.766 C225.524,139.07 224.167,136.713 224.167,133.777 C224.167,131.047 225.345,128.504 226.928,126.388 C228.542,124.234 230.762,122.258 233.356,120.594 C238.536,117.249 245.583,114.889 253.333,114.889 Z M286.389,114.889 C291.522,114.889 296.181,116.584 299.611,118.976 C302.808,121.204 305.833,124.72 305.833,128.776 C305.833,131.059 304.849,132.949 303.352,134.322 C301.964,135.597 300.206,136.375 298.514,136.888 C295.131,137.911 290.776,138.222 286.389,138.222 L285.599,138.222 C286.105,136.869 286.389,135.383 286.389,133.777 C286.389,129.927 284.744,126.583 282.85,124.055 C280.96,121.531 278.456,119.311 275.659,117.479 C278.981,115.778 282.658,114.891 286.389,114.889 Z" />
        </g>
        <g id="Regular-S">
            <path d="M453.333,111 C457.975,111 462.426,109.156 465.708,105.874 C468.99,102.592 470.833,98.141 470.833,93.5 C470.833,88.859 468.99,84.408 465.708,81.126 C462.426,77.844 457.975,76 453.333,76 C448.692,76 444.241,77.844 440.959,81.126 C437.677,84.408 435.833,88.859 435.833,93.5 C435.833,98.141 437.677,102.592 440.959,105.874 C444.241,109.156 448.692,111 453.333,111 Z M498.056,99.333 C498.056,102.428 496.826,105.395 494.638,107.583 C492.451,109.771 489.483,111 486.389,111 C483.295,111 480.327,109.771 478.139,107.583 C475.951,105.395 474.722,102.428 474.722,99.333 C474.722,96.239 475.951,93.272 478.139,91.084 C480.327,88.896 483.295,87.667 486.389,87.667 C489.483,87.667 492.451,88.896 494.638,91.084 C496.826,93.272 498.056,96.239 498.056,99.333 Z M453.333,114.889 C461.084,114.889 468.131,117.253 473.311,120.59 C475.904,122.262 478.125,124.234 479.739,126.384 C481.322,128.504 482.5,131.051 482.5,133.777 C482.5,136.713 481.139,139.066 479.14,140.766 C477.254,142.36 474.796,143.394 472.257,144.106 C467.151,145.533 460.396,146 453.333,146 C446.271,146 439.516,145.533 434.414,144.106 C431.871,143.394 429.413,142.36 427.531,140.766 C425.524,139.07 424.167,136.713 424.167,133.777 C424.167,131.047 425.345,128.504 426.928,126.388 C428.542,124.234 430.762,122.258 433.356,120.594 C438.536,117.249 445.583,114.889 453.333,114.889 Z M486.389,114.889 C491.522,114.889 496.181,116.584 499.611,118.976 C502.808,121.204 505.833,124.72 505.833,128.776 C505.833,131.059 504.849,132.949 503.352,134.322 C501.964,135.597 500.206,136.375 498.514,136.888 C495.131,137.911 490.776,138.222 486.389,138.222 L485.599,138.222 C486.105,136.869 486.389,135.383 486.389,133.777 C486.389,129.927 484.744,126.583 482.85,124.055 C480.96,121.531 478.456,119.311 475.659,117.479 C478.981,115.778 482.658,114.891 486.389,114.889 Z" />
        </g>
        <g id="Black-S">
            <path d="M653.333,111 C657.975,111 662.426,109.156 665.708,105.874 C668.99,102.592 670.833,98.141 670.833,93.5 C670.833,88.859 668.99,84.408 665.708,81.126 C662.426,77.844 657.975,76 653.333,76 C648.692,76 644.241,77.844 640.959,81.126 C637.677,84.408 635.833,88.859 635.833,93.5 C635.833,98.141 637.677,102.592 640.959,105.874 C644.241,109.156 648.692,111 653.333,111 Z M698.056,99.333 C698.056,102.428 696.826,105.395 694.638,107.583 C692.451,109.771 689.483,111 686.389,111 C683.295,111 680.327,109.771 678.139,107.583 C675.952,105.395 674.722,102.428 674.722,99.333 C674.722,96.239 675.952,93.272 678.139,91.084 C680.327,88.896 683.295,87.667 686.389,87.667 C689.483,87.667 692.451,88.896 694.638,91.084 C696.826,93.272 698.056,96.239 698.056,99.333 Z M653.333,114.889 C661.084,114.889 668.131,117.253 673.311,120.59 C675.904,122.262 678.125,124.234 679.739,126.384 C681.322,128.504 682.5,131.051 682.5,133.777 C682.5,136.713 681.139,139.066 679.14,140.766 C677.254,142.36 674.796,143.394 672.257,144.106 C667.151,145.533 660.396,146 653.333,146 C646.271,146 639.516,145.533 634.414,144.106 C631.871,143.394 629.413,142.36 627.531,140.766 C625.524,139.07 624.167,136.713 624.167,133.777 C624.167,131.047 625.345,128.504 626.928,126.388 C628.542,124.234 630.762,122.258 633.356,120.594 C638.536,117.249 645.583,114.889 653.333,114.889 Z M686.389,114.889 C691.522,114.889 696.181,116.584 699.611,118.976 C702.808,121.204 705.833,124.72 705.833,128.776 C705.833,131.059 704.849,132.949 703.352,134.322 C701.964,135.597 700.206,136.375 698.514,136.888 C695.131,137.911 690.776,138.222 686.389,138.222 L685.599,138.222 C686.105,136.869 686.389,135.383 686.389,133.777 C686.389,129.927 684.744,126.583 682.85,124.055 C680.96,121.531 678.456,119.311 675.659,117.479 C678.981,115.778 682.658,114.891 686.389,114.889 Z" />
        </g>
    </g>
</svg>