<?xml version="1.0" encoding="UTF-8"?>
<svg height="600" width="800" xmlns="http://www.w3.org/2000/svg" xmlns:xlink="http://www.w3.org/1999/xlink">
    <g id="Notes" font-family="'LucidaGrande', 'Lucida Grande', sans-serif" font-size="13">
        <rect fill="white" height="600.0" width="800.0" x="0.0" y="0.0" />
        <g font-size="13">
            <text x="18.0" y="176.0">Small</text>
            <text x="18.0" y="376.0">Medium</text>
            <text x="18.0" y="576.0">Large</text>
        </g>
        <g font-size="9">
            <text x="250.0" y="30.0">Ultralight</text>
            <text x="450.0" y="30.0">Regular</text>
            <text x="650.0" y="30.0">Black</text>
            <text id="template-version" fill="#505050" text-anchor="end" x="785.0" y="575.0">Template v.3.0</text>
            <a href="https://wangchujiang.com/#/app">
                <text fill="#505050" text-anchor="end" x="785.0" y="590.0">https://wangchujiang.com/#/app</text>
            </a>
        </g>
    </g>
    <g id="Guides" stroke="rgb(39, 170, 225)" stroke-width="0.5">
        <path id="Capline-S" d="M18,76 l800,0" />
        <path id="H-reference" d="M85,145.755 L87.685,145.755 L113.369,79.287 L114.052,79.287 L114.052,76 L112.148,76 L85,145.755 Z M95.693,121.536 L130.996,121.536 L130.263,119.313 L96.474,119.313 L95.693,121.536 Z M139.15,145.755 L141.787,145.755 L114.638,76 L113.466,76 L113.466,79.287 L139.15,145.755 Z" stroke="none" />
        <path id="Baseline-S" d="M18,146 l800,0" />
        <path id="left-margin-Ultralight-S" d="M221,56 l0,110" />
        <path id="right-margin-Ultralight-S" d="M309,56 l0,110" />
        <path id="left-margin-Regular-S" d="M421,56 l0,110" />
        <path id="right-margin-Regular-S" d="M509,56 l0,110" />
        <path id="left-margin-Black-S" d="M621,56 l0,110" />
        <path id="right-margin-Black-S" d="M709,56 l0,110" />
        <path id="Capline-M" d="M18,276 l800,0" />
        <path id="Baseline-M" d="M18,346 l800,0" />
        <path id="Capline-L" d="M18,476 l800,0" />
        <path id="Baseline-L" d="M18,546 l800,0" />
    </g>
    <g id="Symbols">
        <g id="Ultralight-S">
            <path d="M260.521,77.2 C261.883,76.414 263.428,76 265,76 C266.572,76 268.117,76.414 269.479,77.2 L292.031,90.221 C293.393,91.008 294.524,92.138 295.31,93.5 C296.096,94.862 296.51,96.406 296.51,97.979 L296.51,124.021 C296.51,125.594 296.096,127.138 295.31,128.5 C294.524,129.862 293.393,130.993 292.031,131.779 L269.479,144.8 C268.117,145.586 266.572,146 265,146 C263.428,146 261.883,145.586 260.521,144.8 L237.969,131.779 C236.607,130.993 235.476,129.862 234.69,128.5 C233.904,127.138 233.49,125.594 233.49,124.021 L233.49,97.979 C233.49,96.406 233.904,94.862 234.69,93.5 C235.476,92.138 236.607,91.008 237.969,90.221 L260.521,77.2 Z M250.735,98.627 L257.905,102.766 L278.68,90.787 L271.511,86.649 L250.735,98.627 Z" />
        </g>
        <g id="Regular-S">
            <path d="M460.521,77.2 C461.883,76.414 463.428,76 465,76 C466.572,76 468.117,76.414 469.479,77.2 L492.031,90.221 C493.393,91.008 494.524,92.138 495.31,93.5 C496.096,94.862 496.51,96.406 496.51,97.979 L496.51,124.021 C496.51,125.594 496.096,127.138 495.31,128.5 C494.524,129.862 493.393,130.993 492.031,131.779 L469.479,144.8 C468.117,145.586 466.572,146 465,146 C463.428,146 461.883,145.586 460.521,144.8 L437.969,131.779 C436.607,130.993 435.476,129.862 434.69,128.5 C433.904,127.138 433.49,125.594 433.49,124.021 L433.49,97.979 C433.49,96.406 433.904,94.862 434.69,93.5 C435.476,92.138 436.607,91.008 437.969,90.221 L460.521,77.2 Z M450.735,98.627 L457.905,102.766 L478.68,90.787 L471.511,86.649 L450.735,98.627 Z" />
        </g>
        <g id="Black-S">
            <path d="M660.521,77.2 C661.883,76.414 663.428,76 665,76 C666.572,76 668.117,76.414 669.479,77.2 L692.031,90.221 C693.393,91.008 694.524,92.138 695.31,93.5 C696.096,94.862 696.51,96.406 696.51,97.979 L696.51,124.021 C696.51,125.594 696.096,127.138 695.31,128.5 C694.524,129.862 693.393,130.993 692.031,131.779 L669.479,144.8 C668.117,145.586 666.572,146 665,146 C663.428,146 661.883,145.586 660.521,144.8 L637.969,131.779 C636.607,130.993 635.476,129.862 634.69,128.5 C633.904,127.138 633.49,125.594 633.49,124.021 L633.49,97.979 C633.49,96.406 633.904,94.862 634.69,93.5 C635.476,92.138 636.607,91.008 637.969,90.221 L660.521,77.2 Z M650.735,98.627 L657.905,102.766 L678.68,90.787 L671.511,86.649 L650.735,98.627 Z" />
        </g>
    </g>
</svg>
